{"title":"[ShepardTDS] Final Fantasy VII Advent Children Director's Cut Du","uid":13203265,"size":1658715780,"categoryP":"video","categoryS":"tv_shows","magnet":"?xt=urn:btih:5c59248cd199ac9042cd797e9a6734f2f638fc58&amp;dn=%5BShepardTDS%5D+Final+Fantasy+VII+Advent+Children+Director%27s+Cut+Du&amp;tr=udp%3A%2F%2Ftracker.leechers-paradise.org%3A6969&amp;tr=udp%3A%2F%2Fzer0day.ch%3A1337&amp;tr=udp%3A%2F%2Fopen.demonii.com%3A1337&amp;tr=udp%3A%2F%2Ftracker.coppersurfer.tk%3A6969&amp;tr=udp%3A%2F%2Fexodus.desync.com%3A6969","seeders":2,"leechers":0,"uploader":"ShepardTDS","files":2,"time":1452558777,"description":"http://extraimago.com/images/2016/01/04/la-copertina-di-final-fantasy-vii-advent-children-blu-ray-114884.jpg\r\n\r\nConstant Quality encoding.\r\nVariable Bit rates\r\nBlu-Ray Source\r\n \nhttp://extraimago.com/images/2016/01/04/sample1.jpg\r\n \nhttp://extraimago.com/images/2016/01/04/sample2.jpg\r\n\r\nGeneral\r\n\r\nFormat : Matroska\r\nFile size : 1.54 GiB\r\nDuration : 2h 6mn\r\nOverall bit rate : 1 749 Kbps\r\nEncoded date : UTC 2016-01-02 19:23:10\r\nWriting application : mkvmerge v8.5.2 ('Crosses') 32bit\r\nWriting library : libebml v1.3.3 + libmatroska v1.4.4\r\n\r\nVideo\r\nID : 1\r\nFormat : V_MPEGH/ISO/HEVC\r\nCodec ID : V_MPEGH/ISO/HEVC\r\nDuration : 2h 6mn\r\nBit rate : 1 330 Kbps\r\nWidth : 1 280 pixels\r\nHeight : 720 pixels\r\nDisplay aspect ratio : 16:9\r\nFrame rate : 23.976 fps\r\nBits/(Pixel*Frame) : 0.060\r\nStream size : 1.17 GiB (76%)\r\n\r\nAudio #1\r\nID : 2\r\nFormat : AC-3\r\nFormat/Info : Audio Coding 3\r\nMode extension : CM (complete main)\r\nCodec ID : A_AC3\r\nDuration : 2h 6mn\r\nBit rate mode : Constant\r\nBit rate : 192 Kbps\r\nChannel(s) : 2 channels\r\nChannel positions : Front: L R\r\nSampling rate : 48.0 KHz\r\nBit depth : 16 bits\r\nCompression mode : Lossy\r\nStream size : 174 MiB (11%)\r\nLanguage : English\r\n\r\nAudio #2\r\nID : 3\r\nFormat : AC-3\r\nFormat/Info : Audio Coding 3\r\nMode extension : CM (complete main)\r\nCodec ID : A_AC3\r\nDuration : 2h 6mn\r\nBit rate mode : Constant\r\nBit rate : 192 Kbps\r\nChannel(s) : 2 channels\r\nChannel positions : Front: L R\r\nSampling rate : 48.0 KHz\r\nBit depth : 16 bits\r\nCompression mode : Lossy\r\nStream size : 174 MiB (11%)\r\nLanguage : Japanese\r\n\r\nText #1\r\nID : 4\r\nFormat : ASS\r\nCodec ID : S_TEXT/ASS\r\nCodec ID/Info : Advanced Sub Station Alpha\r\nCompression mode : Lossless\r\nTitle : ASS\r\nLanguage : English\r\n\r\nText #2\r\nID : 5\r\nFormat : UTF-8\r\nCodec ID : S_TEXT/UTF8\r\nCodec ID/Info : UTF-8 Plain Text\r\nTitle : SRT\r\nLanguage : English","torrent":{"xt":"urn:btih:5c59248cd199ac9042cd797e9a6734f2f638fc58","amp;dn":"%5BShepardTDS%5D+Final+Fantasy+VII+Advent+Children+Director%27s+Cut+Du","amp;tr":["udp%3A%2F%2Ftracker.leechers-paradise.org%3A6969","udp%3A%2F%2Fzer0day.ch%3A1337","udp%3A%2F%2Fopen.demonii.com%3A1337","udp%3A%2F%2Ftracker.coppersurfer.tk%3A6969","udp%3A%2F%2Fexodus.desync.com%3A6969"],"infoHash":"5c59248cd199ac9042cd797e9a6734f2f638fc58","infoHashBuffer":{"type":"Buffer","data":[92,89,36,140,209,153,172,144,66,205,121,126,154,103,52,242,246,56,252,88]},"announce":[],"urlList":[]}}